# xmcd
#
# Track frame offsets: 
#        182
#        15130
#        26527
#        37112
#        74500
#        88115
#        99785
#        111437
#        121525
#        136235
#        157362
#        170672
#        185610
#        198227
#        209345
#        221725
#
# Disc length: 3132 seconds
#
# Revision: 7
# Processed by: cddbd v1.5.2PL0 Copyright (c) Steve Scherf et al.
# Submitted via: ExactAudioCopyFreeDBPlugin 1.0
#
DISCID=e10c3a10
DTITLE=Various Artist - Play Me The Blues - Legendary Blues Singers - CD10
DYEAR=1993
DGENRE=Blues
TTITLE0=Johnny Winter - Pick Up On Mojo
TTITLE1=Memphis Slim - Feelin' Low
TTITLE2=Elmore James - I Done Somebody Wrong
TTITLE3=Jimi Hendrix - Bleeding Heart
TTITLE4=Little Walter - Can't Hold Out Much Longer
TTITLE5=Sonny Boy Williamson II. - The Key (To Your Door)
TTITLE6=Johnny Guitar Watson - The Eagle Is Back
TTITLE7=Howlin' Wolf - Shake For Me
TTITLE8=John Mayall - Why Worry
TTITLE9=Mike Bloomfield - Women Lovin' Eachother
TTITLE10=John Lee Hooker - I Love You Baby
TTITLE11=Muddy Waters - Baby Please Don't Go
TTITLE12=Howlin' Wolf - Little Baby
TTITLE13=Sonny Boy Williamson II. - Got To Move
TTITLE14=Little Walter - Juke
TTITLE15=Big Joe Williams - Don't Want No Big Fat Woman
EXTD=
EXTT0=
EXTT1=
EXTT2=
EXTT3=
EXTT4=
EXTT5=
EXTT6=
EXTT7=
EXTT8=
EXTT9=
EXTT10=
EXTT11=
EXTT12=
EXTT13=
EXTT14=
EXTT15=
PLAYORDER=
